<?xml version="1.0" encoding="utf-8"?>
<!-- Generator: Adobe Illustrator 24.0.1, SVG Export Plug-In . SVG Version: 6.00 Build 0)  -->
<svg version="1.1" id="Layer_1" xmlns="http://www.w3.org/2000/svg" xmlns:xlink="http://www.w3.org/1999/xlink" x="0px" y="0px"
	 viewBox="0 0 24 24" style="enable-background:new 0 0 24 24;" xml:space="preserve">
<style type="text/css">
	.st0{fill:#FFD600;}
</style>
<path class="st0" d="M9.9,10.8l-0.6-0.3c-0.1-0.1-0.2,0-0.3,0.1l-2,5.2c-0.1,0.2-0.2,0.5-0.3,1l0,0c0-0.3-0.1-0.7-0.3-1.3l-2-7.3
	c0-0.1-0.1-0.1-0.1-0.2L3.6,7.8C3.4,7.7,3.3,7.8,3.3,8v8.7c0,0.1,0.1,0.2,0.1,0.2l0.3,0.2C3.9,17.1,4,17,4,16.9V11
	c0-0.8,0-1.4,0-1.8l0,0c0.1,0.5,0.1,0.8,0.2,1l2.2,8c0,0.1,0.1,0.1,0.1,0.2l0.1,0c0.1,0.1,0.2,0,0.3-0.1l2.4-6.6l-0.1,7.8
	c0,0.1,0.1,0.2,0.1,0.2L9.7,20c0.1,0.1,0.3,0,0.3-0.2v-8.7C10,11,10,10.9,9.9,10.8z M12,24c-0.1,0-0.2,0-0.2,0l-10-4.4
	c-0.2-0.1-0.4-0.3-0.4-0.6l0-13.7c0-0.3,0.1-0.5,0.4-0.6l10.1-4.5c0.1,0,0.2,0,0.2,0c0.1,0,0.2,0,0.2,0l10,4.4
	c0.2,0.1,0.4,0.3,0.4,0.6l0,13.7c0,0.3-0.2,0.5-0.4,0.6l-10.1,4.5C12.1,23.9,12.1,24,12,24z M12.4,23l9.5-4.3l0-13.1l-9.5,4.2
	L12.4,23z M11.6,23l0-8.6l0-4.6L2.1,5.6l0,13.1L11.6,23z M12,9.1L21.3,5L12,0.9L2.7,5L12,9.1z M20.1,16l-4.9,2.2
	c-0.1,0.1-0.3,0-0.3-0.2l0-7.3c0-0.2-0.1-0.3-0.3-0.2l-0.6,0.3C14,10.8,14,10.9,14,11l0,8.4c0,0.2,0.1,0.3,0.3,0.2l6-2.7
	c0.1,0,0.1-0.1,0.1-0.2v-0.5C20.4,16,20.2,15.9,20.1,16z M16.8,4.5L16.8,4.5c-0.1,0-0.1,0-0.1-0.1l-6.2-0.4c-0.2,0-0.3,0-0.4,0l0,0
	L12.4,3c0.2-0.1,0.2-0.4,0-0.4l-0.5-0.2c0,0-0.1,0-0.2,0L6.2,4.8C6,4.9,6,5.2,6.2,5.3l0.5,0.2c0,0,0.1,0,0.1,0l2.8-1.2
	c0.1-0.1,0.2,0,0.3,0.2L10.4,7c0,0.1,0.1,0.1,0.1,0.2l0.9,0.4c0.2,0.1,0.3-0.1,0.3-0.3l-0.7-2.4c0-0.2,0.1-0.3,0.2-0.3l5.4,0.4
	C17,5,17,4.6,16.8,4.5z"/>
</svg>
